<svg width="131" height="23" viewBox="0 0 131 23" fill="none" xmlns="http://www.w3.org/2000/svg">
<path d="M130.667 22.1958H125.712C125.712 21.0221 125.451 19.9787 124.831 18.3812L124.114 16.4575H115.18L114.496 18.316C113.876 19.9787 113.583 21.2503 113.583 22.1958H109.083C109.899 21.1199 110.746 19.4245 111.659 17.1748L116.68 4.52459C117.463 2.56837 117.724 1.65547 117.724 0.970789C117.724 0.807771 117.691 0.612147 117.658 0.351318H121.31L128.19 17.2074C128.939 19.0006 129.918 21.1525 130.667 22.1958ZM116.159 13.8166H123.103L120.104 5.86134C119.843 5.17667 119.68 4.65501 119.615 4.32897L119.093 5.86134L116.159 13.8166Z" fill="currentColor"/>
<path d="M102.054 0.351318H106.227C105.934 1.23162 105.771 2.56837 105.771 4.39418V22.1958H103.162L91.6205 7.62194C91.2619 7.13289 90.9684 6.70904 90.7728 6.31779C90.8054 6.67644 90.838 7.13289 90.838 7.71975V18.1203C90.838 19.9787 91.001 21.3155 91.2945 22.1958H87.1212C87.4146 21.3155 87.5776 19.9787 87.5776 18.1203V3.12263L85.5562 0.383922V0.351318H90.3164L101.532 14.5339C101.858 14.9578 102.217 15.4468 102.576 16.0663C102.543 15.4468 102.51 14.8926 102.51 14.4035V4.39418C102.51 2.56837 102.347 1.23162 102.054 0.351318Z" fill="currentColor"/>
<path d="M60.3906 11.6083C60.2928 4.85937 65.1834 -0.0963871 71.9651 0.00142277C78.5185 0.00142277 82.9201 4.33771 82.9201 10.9889C82.9201 17.7704 78.2903 22.5306 71.4108 22.5306C64.8248 22.5306 60.3906 18.1943 60.3906 11.6083ZM79.2032 11.7714C79.2032 6.71779 75.8776 2.90315 71.2478 2.90315C66.944 2.90315 64.1075 6.22873 64.1075 10.7606C64.1075 15.7816 67.4005 19.5962 72.0955 19.5962C76.3014 19.5962 79.2032 16.1729 79.2032 11.7714Z" fill="currentColor"/>
<path d="M58.6754 22.1958H54.0783L48.6334 13.5884C47.6226 13.621 46.9379 13.6536 46.5467 13.6536H45.536V18.1203C45.536 19.9787 45.699 21.3155 45.9924 22.1958H41.4604C41.7865 21.3481 41.9495 19.9787 41.9495 18.1203V4.39418C41.9495 2.53576 41.7865 1.19901 41.4604 0.351318H47.7204C53.4262 0.351318 56.2953 2.47056 56.2953 6.67644C56.2953 10.0346 54.5673 12.2517 52.2198 13.0668L56.0019 18.6746C56.9148 20.044 57.7951 21.2177 58.6754 22.1958ZM45.536 11.0453H47.2966C48.8942 11.0453 50.1658 10.7845 51.1439 10.2302C52.1546 9.67598 52.6437 8.56745 52.6437 6.90466C52.6437 3.7421 50.557 2.92701 46.9379 2.92701H45.536V11.0453Z" fill="currentColor"/>
<path d="M38.1876 18.5768L37.6659 22.1958H24.2656C24.5591 21.3155 24.7221 19.9787 24.7221 18.1203V4.39418C24.7221 2.56837 24.5591 1.23162 24.2656 0.351318H37.3073V3.80731C35.7749 3.18784 34.5359 2.95961 32.1884 2.95961H28.3085V9.15432H35.4815V12.3495C34.4707 11.9582 32.7101 11.7626 31.1125 11.7626H28.3085V19.5549H33.0035C35.188 19.5549 36.59 19.2289 38.1876 18.5768Z" fill="currentColor"/>
<path d="M17.1172 0.351318H21.3231C20.6384 1.39464 19.9537 2.89441 19.2038 4.81802L12.5852 22.1958H9.22697L2.51052 5.33968C1.92364 3.87252 1.46719 2.8292 1.10854 2.17713C0.782499 1.52505 0.423854 0.90558 0 0.351318H5.02104C5.02104 1.16641 5.34708 2.47056 5.99916 4.23116L10.0747 15.2512C10.5637 16.588 10.9224 17.6639 11.2158 18.5116C11.3788 17.9573 11.6723 16.9466 12.1613 15.512L16.1717 4.00293C16.9216 1.9489 17.1172 1.036 17.1172 0.351318Z" fill="currentColor"/>
</svg>
