<svg width="147" height="23" viewBox="0 0 147 23" fill="none" xmlns="http://www.w3.org/2000/svg">

<g id="home">

<g id="Investors">


<g id="Container">
<g id="Section Container">
<g id="grid">
<g id="logo1">
<g id="Hex Trust" clip-path="url(#clip0_3005_2)">
<path id="Vector" d="M16.9774 9.31135e-07H16.8757C16.8145 7.72161e-06 16.7537 0.00786085 16.6947 0.023355L0.500853 4.31133C0.357014 4.34976 0.230186 4.43251 0.139744 4.54694C0.0493013 4.66137 0.000221393 4.80119 0 4.94503C0.000221393 5.08888 0.0493013 5.2287 0.139744 5.34313C0.230186 5.45756 0.357014 5.5403 0.500853 5.57873L10.4857 8.22563L16.6931 9.86827C16.7521 9.88376 16.8129 9.89161 16.874 9.89162H16.9758C17.0364 9.89172 17.0968 9.88386 17.1552 9.86827L23.3642 8.22563L33.349 5.57873C33.4929 5.5403 33.6197 5.45756 33.7101 5.34313C33.8006 5.2287 33.8496 5.08888 33.8499 4.94503C33.8496 4.80119 33.8006 4.66137 33.7101 4.54694C33.6197 4.43251 33.4929 4.34976 33.349 4.31133L17.1568 0.023355C17.0984 0.00775784 17.038 -9.84495e-05 16.9774 9.31135e-07Z" fill="#F8F7F3"/>
<path id="Vector_2" d="M17.1503 11.137H16.7012C16.6406 11.137 16.5802 11.1291 16.5218 11.1136L8.23829 8.91983C8.11982 8.88872 7.99486 8.88872 7.87638 8.91983L0.500853 10.8723C0.357014 10.9107 0.230186 10.9935 0.139744 11.1079C0.0493013 11.2223 0.000221393 11.3622 0 11.506C3.66389e-05 11.6497 0.0490737 11.7894 0.139571 11.9036C0.230069 12.0179 0.357008 12.1003 0.500853 12.1381L10.4922 14.785L16.6947 16.4277C16.7537 16.4432 16.8145 16.451 16.8757 16.451H16.9774C17.038 16.4511 17.0984 16.4433 17.1568 16.4277L23.361 14.785L33.3522 12.1381C33.4961 12.1003 33.623 12.0179 33.7135 11.9036C33.804 11.7894 33.8531 11.6497 33.8531 11.506C33.8529 11.3622 33.8038 11.2223 33.7134 11.1079C33.6229 10.9935 33.4961 10.9107 33.3522 10.8723L25.9751 8.91983C25.8572 8.8887 25.7327 8.8887 25.6148 8.91983L17.3313 11.1136C17.2723 11.1293 17.2115 11.1371 17.1503 11.137Z" fill="#F8F7F3"/>
<path id="Vector_3" d="M17.1503 17.6857H16.7012C16.6406 17.6857 16.5802 17.6779 16.5218 17.6624L8.24152 15.4701C8.12304 15.439 7.99809 15.439 7.87961 15.4701L0.500853 17.4241C0.357008 17.462 0.230069 17.5444 0.139571 17.6586C0.0490737 17.7729 3.66389e-05 17.9126 0 18.0563C0.000221393 18.2001 0.0493013 18.34 0.139744 18.4544C0.230186 18.5688 0.357014 18.6516 0.500853 18.69L16.6947 22.978C16.7537 22.9935 16.8145 23.0013 16.8757 23.0013H16.9774C17.038 23.0014 17.0984 22.9936 17.1568 22.978L33.3522 18.69C33.4961 18.6516 33.6229 18.5688 33.7134 18.4544C33.8038 18.34 33.8529 18.2001 33.8531 18.0563C33.8531 17.9126 33.804 17.7729 33.7135 17.6586C33.623 17.5444 33.4961 17.462 33.3522 17.4241L25.9735 15.4701C25.855 15.439 25.7301 15.439 25.6116 15.4701L17.3313 17.6624C17.2723 17.678 17.2115 17.6858 17.1503 17.6857Z" fill="#F8F7F3"/>
<path id="Vector_4" d="M42.6279 20.2875L42.6295 3.30371H46.882V10.0175H54.5742V3.30527H58.8266L58.825 20.289H54.5726L54.5742 13.3339L46.8804 13.3323V20.2875H42.6279Z" fill="#F8F7F3"/>
<path id="Vector_5" d="M72.7567 16.0591C72.1104 18.7808 69.9018 20.6149 66.6576 20.6149C62.7137 20.6149 59.917 18.295 59.917 14.4943C59.917 10.7202 62.7703 7.99698 66.5752 7.99854C70.687 7.99854 72.8407 10.7217 72.8407 13.9836V15.1685H63.8883C63.9998 16.7582 65.2309 17.6753 66.7965 17.6753C68.1941 17.6753 69.0584 17.163 69.5092 16.0591H72.7567ZM68.9518 13.093C68.8678 11.9066 68.0858 10.8292 66.5461 10.8292C64.9304 10.8292 64.1694 11.8256 63.9449 13.093H68.9518Z" fill="#F8F7F3"/>
<path id="Vector_6" d="M92.9494 20.2923V6.6795H86.8228V3.30859H103.383V6.67794H97.1743V20.2923H92.9494Z" fill="#F8F7F3"/>
<path id="Vector_7" d="M110.185 12.1277C109.539 11.7758 108.927 11.6419 108.059 11.6419C106.38 11.6419 105.261 12.5574 105.261 14.6329V20.2942H101.233V8.32551H105.264V10.5053C105.739 9.1585 107.027 7.99854 108.704 7.99854C109.46 7.99854 110.103 8.21496 110.439 8.48432L110.185 12.1277Z" fill="#F8F7F3"/>
<path id="Vector_8" d="M119.92 8.33454H123.977V20.3032H119.921V18.4364C119.249 19.7832 117.85 20.6162 115.976 20.6162C112.62 20.6162 111.557 18.4052 111.557 15.8439V8.3252H115.585V14.902C115.585 16.6006 116.173 17.5489 117.655 17.5489C119.165 17.5489 119.917 16.336 119.917 14.4224L119.92 8.33454Z" fill="#F8F7F3"/>
<path id="Vector_9" d="M128.648 16.3063C128.809 17.4663 129.768 18.1124 131.278 18.1124C132.369 18.1124 133.096 17.7356 133.096 17.0895C133.096 16.4963 132.705 16.1724 131.697 16.0105L129.795 15.7131C126.942 15.2818 125.404 14.3383 125.404 11.9654C125.404 9.64703 127.504 8.00284 130.831 8.0044C134.356 8.0044 136.453 9.51468 136.705 12.0744L133.377 12.1818C133.18 11.1308 132.314 10.5376 130.774 10.5376C129.768 10.5376 129.158 10.9425 129.158 11.5886C129.158 12.0744 129.551 12.3671 130.165 12.4512L132.569 12.8498C135.283 13.2546 136.849 14.4068 136.849 16.7049C136.849 19.2117 134.639 20.6145 131.254 20.6145C127.897 20.6145 125.352 19.2926 125.129 16.3811L128.648 16.3063Z" fill="#F8F7F3"/>
<path id="Vector_10" d="M81.4376 13.5086L85.5705 8.32227H81.3746L79.4067 10.9084L81.4376 13.5086Z" fill="#F8F7F3"/>
<path id="Vector_11" d="M83.2943 16.8734V16.875L81.0372 14.0101L78.9966 11.4488L76.6749 8.32236L72.1704 8.3208L76.7024 14.172L71.7778 20.291H75.9737L78.7446 16.7333L81.4848 20.291H85.9892L83.2943 16.8734Z" fill="#F8F7F3"/>
<path id="Vector_12" d="M144.985 17.4943C144.034 17.4943 143.531 17.063 143.531 16.0385V11.0561V8.33447V5.01807H141.041L140.621 6.60932C140.314 7.71479 139.951 8.33447 138.72 8.54934L137.825 8.6848V11.0561H139.558V17.0957C139.558 19.7909 141.376 20.627 143.391 20.627C145.006 20.627 146.076 20.2502 146.998 19.576V17.0085C146.244 17.3324 145.601 17.4943 144.985 17.4943Z" fill="#F8F7F3"/>
<path id="Vector_13" d="M146.832 8.32861H144.232V11.0518H146.832V8.32861Z" fill="#F8F7F3"/>
</g>
</g>
</g>
</g>
</g>
</g>
</g>
<defs>

<clipPath id="clip0_3005_2">
<rect width="147" height="23" fill="white"/>
</clipPath>
</defs>
</svg>
