<svg width="136" height="34" viewBox="0 0 136 34" fill="none" xmlns="http://www.w3.org/2000/svg">

<g id="home">

<g id="Investors">


<g id="Container">
<g id="Section Container">
<g id="grid" clip-path="url(#clip0_3005_2)">
<g id="logo1">
<g id="Inovationg Capital">
<path id="Vector" d="M44.7817 0.176651C42.0484 0.83358 39.8312 3.08591 39.2212 5.80747C38.9632 6.99229 39.0453 8.98653 39.3972 10.0775C40.3357 12.9985 42.9868 15.0279 46.119 15.2156C49.9198 15.4385 53.0285 13.3739 54.1429 9.90154C54.3893 9.13904 54.4479 8.72846 54.4596 7.67268C54.4714 5.3265 53.7089 3.47303 52.1252 1.99494C50.5767 0.552039 49.04 -0.0227737 46.7525 0.000688553C46.0369 0.000688553 45.1453 0.0828047 44.7817 0.176651ZM48.8523 2.92167C52.5123 4.77515 52.6062 10.3473 49.0165 12.1891C46.5178 13.4795 43.5969 12.4471 42.3534 9.84289C41.9428 8.98653 41.9311 8.92788 41.9311 7.55537C41.9311 6.21805 41.9545 6.11247 42.3065 5.3617C42.7288 4.45842 43.5617 3.50822 44.3242 3.06245C45.1336 2.59321 45.7905 2.45244 47.0105 2.49936C47.9607 2.53456 48.1954 2.58148 48.8523 2.92167Z" fill="#F8F7F3"/>
<path id="Vector_2" d="M126.928 0.178291C124.793 0.729642 122.998 2.196 122.059 4.14332C121.403 5.5041 121.25 6.31353 121.32 8.0497C121.391 9.6451 121.637 10.5601 122.318 11.7097C123.772 14.1615 126.306 15.3932 129.544 15.2055C131.339 15.1 132.817 14.5838 134.424 13.4928L135.139 13.0001V9.84453V6.67719H131.972H128.805L128.758 6.93527C128.734 7.08777 128.711 7.60393 128.723 8.0849L128.746 8.96471L130.658 8.9999L132.559 9.02337V10.3724V11.7097L132.066 12.003C130.74 12.7538 128.934 12.9884 127.549 12.5661C125.332 11.8857 124.112 10.1026 124.112 7.53354C124.112 4.77679 125.978 2.64177 128.511 2.47754C129.99 2.39542 131.327 2.78254 132.394 3.62717C132.629 3.82659 132.875 3.96736 132.934 3.95563C133.051 3.90871 134.553 2.06696 134.553 1.96138C134.553 1.82061 133.169 0.929067 132.476 0.624063C132.125 0.459832 131.503 0.260407 131.104 0.16656C130.177 -0.0563269 127.784 -0.0445957 126.928 0.178291Z" fill="#F8F7F3"/>
<path id="Vector_3" d="M0 7.61501V15.0055H1.34905H2.6981V7.61501V0.224559H1.34905H0V7.61501Z" fill="#F8F7F3"/>
<path id="Vector_4" d="M6.45312 7.61109V15.0015H7.80218H9.15123L9.17469 9.88688L9.20988 4.78395L13.1397 9.86342L17.0696 14.9429L18.2192 14.9781L19.3571 15.0133V7.61109V0.22064H18.0667H16.7763L16.7528 5.20626L16.7176 10.1801L12.8464 5.20626L8.98699 0.22064H7.72006H6.45312V7.61109Z" fill="#F8F7F3"/>
<path id="Vector_5" d="M23.1094 7.61501V15.0055H24.3998H25.6902L25.7136 9.8556L25.7488 4.69402L29.7373 9.8556L33.7258 15.0055H34.8754H36.0133V7.61501V0.224559H34.6643H33.3152L33.2918 5.16325L33.2566 10.102L29.444 5.18672L25.6315 0.283213L24.3763 0.24802L23.1094 0.212828V7.61501Z" fill="#F8F7F3"/>
<path id="Vector_6" d="M55.3672 0.27136C55.3672 0.294823 56.7397 3.63812 58.4055 7.697L61.4555 15.064L62.6638 15.0992L63.8721 15.1226L66.8986 7.76739C68.5527 3.70851 69.9135 0.365208 69.9135 0.306554C69.9135 0.25963 69.28 0.224438 68.5058 0.224438H67.1098L66.9456 0.541171C66.8634 0.728865 65.8663 3.22754 64.7402 6.11333L62.699 11.357L61.7722 8.9874C61.2678 7.68527 60.2824 5.18659 59.602 3.45043L58.3468 0.283092L56.857 0.247899C56.0358 0.236168 55.3672 0.236168 55.3672 0.27136Z" fill="#F8F7F3"/>
<path id="Vector_7" d="M72.1086 7.54071C70.4545 11.5644 69.0938 14.9194 69.0938 15.0015C69.0938 15.0954 69.4691 15.1306 70.5249 15.1071L71.9444 15.0719L74.0911 9.57015C75.2759 6.55532 76.2496 4.06838 76.273 4.04492C76.2965 4.02145 77.2819 6.49667 78.4784 9.53496L80.6487 15.0719L82.1502 15.1071C82.9714 15.1189 83.64 15.1189 83.64 15.0954C83.64 15.0602 82.2675 11.7286 80.6017 7.66975L77.5517 0.291037L76.3317 0.255844L75.1117 0.220652L72.1086 7.54071Z" fill="#F8F7F3"/>
<path id="Vector_8" d="M83.9922 1.4563V2.68804H86.2797H88.5672V8.84675V15.0055H89.9749H91.3826V8.84675V2.68804H93.6702H95.9577V1.4563V0.224559H89.9749H83.9922V1.4563Z" fill="#F8F7F3"/>
<path id="Vector_9" d="M98.7734 7.61501V15.0055H100.122H101.472V7.61501V0.224559H100.122H98.7734V7.61501Z" fill="#F8F7F3"/>
<path id="Vector_10" d="M105.344 7.61501V15.0055H106.634H107.925L107.948 9.86733L107.983 4.71748L111.96 9.86733L115.948 15.0055H117.098H118.248V7.61501V0.224559H116.899H115.55L115.526 5.17499L115.491 10.1137L111.678 5.19845L107.854 0.283213L106.599 0.24802L105.344 0.212828V7.61501Z" fill="#F8F7F3"/>
<path id="Vector_11" d="M50.1911 21.2135C48.2555 21.7179 46.4724 23.5714 45.9328 25.6243C45.7099 26.5158 45.7099 28.3693 45.9328 29.2491C46.3434 30.8328 47.4695 32.3226 48.8538 33.132C50.5782 34.1409 53.464 34.1526 55.165 33.1555C55.4583 32.9913 55.9979 32.6042 56.3733 32.2992L57.0419 31.7478L56.69 31.3959L56.3263 31.044L55.6459 31.5953C54.4729 32.569 53.4054 32.9678 51.9625 32.9678C50.4726 32.9678 49.3817 32.4751 48.3259 31.3372C47.2818 30.2111 46.8126 28.9676 46.8126 27.3487C46.8243 24.8383 48.3259 22.7737 50.6134 22.105C51.5284 21.8352 53.0652 21.9173 53.9684 22.2693C54.3204 22.3983 54.9773 22.7854 55.4113 23.1139L56.209 23.7239L56.561 23.3837C56.7487 23.2077 56.9012 23.02 56.9012 22.9614C56.9012 22.715 55.0242 21.5654 54.1679 21.2839C53.0417 20.9202 51.4111 20.885 50.1911 21.2135Z" fill="#F8F7F3"/>
<path id="Vector_12" d="M63.3446 27.3386C61.7609 30.7641 60.447 33.6147 60.4236 33.685C60.4001 33.7437 60.623 33.7789 60.9515 33.7554L61.5145 33.7202L62.2888 32.0193L63.0747 30.3183L66.7113 30.2831L70.3479 30.2596L71.1573 32.0193L71.955 33.7789H72.5298C72.9404 33.7789 73.0929 33.732 73.046 33.6381C73.0225 33.556 71.7087 30.7054 70.1367 27.2917L67.2861 21.1096H66.7465H66.2186L63.3446 27.3386ZM68.3771 25.9192L69.8904 29.2625L66.7817 29.2977C65.069 29.3094 63.6378 29.3094 63.6144 29.2742C63.5909 29.2508 64.2713 27.7023 65.1276 25.8254C65.984 23.9367 66.723 22.4469 66.77 22.4938C66.8169 22.5407 67.5325 24.0775 68.3771 25.9192Z" fill="#F8F7F3"/>
<path id="Vector_13" d="M77.6562 27.4442V33.7789H78.1841H78.712V31.4327V29.0865H80.6828C81.7738 29.0865 82.9703 29.0279 83.3575 28.9575C84.4015 28.7698 85.4104 28.2419 86.0204 27.5615C86.6773 26.8225 86.9236 26.1304 86.9236 24.9807C86.9236 24.2065 86.8767 23.9719 86.5717 23.3619C85.95 22.1301 84.8825 21.438 83.2753 21.2269C82.7944 21.1682 81.3397 21.1096 80.0376 21.1096H77.6562V27.4442ZM83.0525 22.1771C84.8942 22.4703 85.8679 23.4792 85.8561 25.098C85.8561 26.1421 85.5277 26.7756 84.683 27.3621C83.8032 27.9604 82.8765 28.1481 80.5655 28.1481H78.712V25.098V22.048H80.5069C81.4805 22.048 82.6301 22.1067 83.0525 22.1771Z" fill="#F8F7F3"/>
<path id="Vector_14" d="M91.8516 27.4442V33.7789H92.3795H92.9073V27.4442V21.1096H92.3795H91.8516V27.4442Z" fill="#F8F7F3"/>
<path id="Vector_15" d="M97.8359 21.6374V22.1653H100.006H102.176V27.9721V33.7789H102.646H103.115V27.9721V22.1653L105.32 22.1419L107.514 22.1067V21.6374V21.1682L102.681 21.133L97.8359 21.1096V21.6374Z" fill="#F8F7F3"/>
<path id="Vector_16" d="M115.154 21.7196C115.002 22.0598 113.711 24.8634 112.28 27.9604C110.849 31.0456 109.688 33.6147 109.688 33.6733C109.688 33.732 109.922 33.7789 110.204 33.7789H110.708L111.506 32.0193L112.303 30.2596L115.952 30.2831L119.588 30.3183L120.363 32.0193L121.149 33.7202L121.688 33.7554C121.993 33.7789 122.24 33.7437 122.24 33.685C122.24 33.6147 120.949 30.7758 119.377 27.3738L116.527 21.1682L115.975 21.133L115.424 21.0978L115.154 21.7196ZM117.606 25.9661C118.415 27.761 119.06 29.2508 119.037 29.2742C119.014 29.2977 117.594 29.3094 115.881 29.2977L112.761 29.2625L114.11 26.3298C114.849 24.7109 115.553 23.1625 115.682 22.8692C115.87 22.4586 115.94 22.3765 116.022 22.529C116.081 22.6228 116.796 24.1713 117.606 25.9661Z" fill="#F8F7F3"/>
<path id="Vector_17" d="M126.93 27.4325V33.7789H131.094H135.259V33.3097V32.8404H131.622H127.985L127.962 27.0102L127.927 21.1682L127.434 21.133L126.93 21.0978V27.4325Z" fill="#F8F7F3"/>
<path id="Vector_18" d="M0 27.2666V27.7945H19.2973H38.5946V27.2666V26.7387H19.2973H0V27.2666Z" fill="#F8F7F3"/>
</g>
</g>
</g>
</g>
</g>
</g>
</g>
<defs>

<clipPath id="clip0_3005_2">
<rect width="604" height="1131" fill="white" transform="translate(-439.038 -548.552)"/>
</clipPath>
</defs>
</svg>
