<svg width="154" height="39" viewBox="0 0 154 39" fill="none" xmlns="http://www.w3.org/2000/svg">

<g id="home">

<g id="Investors">


<g id="Container">
<g id="Section Container">
<g id="grid">
<g id="logo1">
<g id="Laser Digital" clip-path="url(#clip0_3005_2)">
<g id="Group 6">
<g id="Group 2">
<g id="Group 1">
<path id="Path 1" d="M45.987 20.3311V5.66135C45.9857 5.62834 45.9911 5.5954 46.003 5.56462C46.0148 5.53384 46.0329 5.50589 46.056 5.48253C46.0791 5.45917 46.1067 5.44091 46.1372 5.42891C46.1676 5.41691 46.2002 5.41142 46.2329 5.41281H47.6676C47.7003 5.41146 47.7328 5.41697 47.7632 5.42898C47.7937 5.441 47.8213 5.45926 47.8444 5.48261C47.8674 5.50597 47.8855 5.53391 47.8973 5.56468C47.9092 5.59544 47.9146 5.62836 47.9132 5.66135V18.7767H54.0203C54.053 18.7753 54.0856 18.7808 54.116 18.7928C54.1465 18.8048 54.1741 18.8231 54.1973 18.8465C54.2204 18.8698 54.2384 18.8978 54.2503 18.9286C54.2621 18.9594 54.2675 18.9924 54.2661 19.0254V20.3311C54.2675 20.3642 54.2621 20.3971 54.2503 20.4279C54.2384 20.4587 54.2204 20.4867 54.1973 20.5101C54.1741 20.5335 54.1465 20.5518 54.116 20.5638C54.0856 20.5758 54.053 20.5813 54.0203 20.5799H46.2329C46.2002 20.5813 46.1676 20.5758 46.1371 20.5638C46.1067 20.5518 46.079 20.5335 46.0559 20.5101C46.0328 20.4867 46.0147 20.4587 46.0029 20.4279C45.991 20.3971 45.9856 20.3642 45.987 20.3311Z" fill="#F8F7F3"/>
<path id="Path 2" d="M62.6072 20.3312V18.8602C62.2608 19.4642 61.7606 19.9634 61.1588 20.3059C60.557 20.6483 59.8755 20.8216 59.185 20.8077C57.1356 20.8077 55.7832 19.4609 55.7832 17.4304C55.7832 15.3172 57.3202 14.0118 60.5374 14.0118H62.5458V12.5822C62.5458 11.1941 61.8081 10.5311 60.3124 10.5311C59.0009 10.5311 58.3449 11.0489 57.9965 12.0641C57.9916 12.0958 57.9798 12.1261 57.9618 12.1526C57.9438 12.1791 57.9201 12.2012 57.8926 12.2172C57.865 12.2332 57.8343 12.2428 57.8026 12.2453C57.7709 12.2477 57.739 12.2429 57.7094 12.2312L56.4184 11.8788C56.3862 11.8745 56.3554 11.8632 56.328 11.8456C56.3005 11.828 56.2773 11.8046 56.2597 11.777C56.2422 11.7494 56.2308 11.7182 56.2264 11.6857C56.222 11.6532 56.2247 11.6201 56.2342 11.5887C56.6645 10.0347 57.9965 8.97827 60.353 8.97827C62.8738 8.97827 64.3697 10.1383 64.3697 12.5418V20.3312C64.3712 20.3642 64.3657 20.3972 64.3539 20.428C64.342 20.4588 64.3239 20.4868 64.3008 20.5102C64.2777 20.5336 64.25 20.5519 64.2195 20.5639C64.189 20.5759 64.1564 20.5814 64.1237 20.5799H62.8535C62.8208 20.5814 62.7881 20.576 62.7576 20.564C62.7271 20.552 62.6994 20.5337 62.6762 20.5103C62.6531 20.4869 62.635 20.4589 62.6231 20.4281C62.6112 20.3972 62.6058 20.3642 62.6072 20.3312ZM59.6767 19.2537C61.0088 19.2537 62.0128 18.4252 62.5458 17.1198V15.2962H60.5374C58.6112 15.2962 57.5658 15.9802 57.5658 17.3256C57.5651 18.4658 58.3243 19.2532 59.6767 19.2532V19.2537Z" fill="#F8F7F3"/>
<path id="Path 3" d="M66.255 18.1136C66.2344 18.0532 66.2378 17.987 66.2646 17.929C66.2914 17.8711 66.3395 17.826 66.3986 17.8033L67.4643 17.3258C67.4948 17.3096 67.5287 17.3012 67.5632 17.3013C67.5976 17.3015 67.6315 17.3102 67.6618 17.3267C67.6921 17.3433 67.7179 17.367 67.737 17.396C67.7561 17.425 67.7679 17.4583 67.7713 17.4929C68.0988 18.6324 69.1442 19.2954 70.5379 19.2954C71.9514 19.2954 72.8941 18.5909 72.8941 17.555C72.8941 16.4983 72.2801 16.1464 69.8614 15.4416C67.7307 14.7986 66.562 14.0521 66.562 12.1672C66.562 10.2195 68.2018 8.97656 70.5174 8.97656C72.5874 8.97656 74.1039 9.95041 74.575 11.608C74.5866 11.6393 74.5916 11.6727 74.5894 11.7061C74.5872 11.7394 74.578 11.7719 74.5623 11.8013C74.5466 11.8307 74.5249 11.8564 74.4986 11.8766C74.4722 11.8968 74.4419 11.9111 74.4097 11.9184L73.3234 12.3119C73.2931 12.3282 73.2592 12.3367 73.2249 12.3366C73.1905 12.3366 73.1567 12.3281 73.1264 12.3117C73.0961 12.2954 73.0702 12.2718 73.051 12.2429C73.0318 12.2141 73.02 12.181 73.0164 12.1464C72.6679 11.0482 71.8891 10.5093 70.557 10.5093C69.1841 10.5093 68.3645 11.1102 68.3645 12.0633C68.3645 13.1203 69.0819 13.4103 71.1309 14.011C73.6103 14.7363 74.6966 15.6271 74.6966 17.4712C74.6966 19.4602 73.0363 20.8069 70.5365 20.8069C68.325 20.8072 66.7273 19.8128 66.255 18.1136Z" fill="#F8F7F3"/>
<path id="Path 4" d="M76.4819 16.3526V13.4726C76.4819 10.6339 78.1009 8.97656 80.8878 8.97656C83.6542 8.97656 85.294 10.6339 85.294 13.4726V15.2546C85.2954 15.2877 85.2899 15.3206 85.2781 15.3514C85.2662 15.3822 85.2481 15.4102 85.225 15.4336C85.2018 15.4569 85.1741 15.4752 85.1437 15.4872C85.1132 15.4991 85.0806 15.5046 85.0479 15.5032H78.2646V16.3526C78.2646 18.1757 79.31 19.2119 81.051 19.2119C82.3011 19.2119 83.1413 18.6938 83.5515 17.6786C83.6129 17.5337 83.7154 17.4714 83.8585 17.5337L85.0267 17.9272C85.1901 17.9893 85.2314 18.0723 85.1901 18.2173C84.6165 19.8956 83.2027 20.8072 81.0505 20.8072C78.2445 20.8072 76.4819 19.1703 76.4819 16.3526ZM83.5728 14.1769V13.369C83.5728 11.608 82.6296 10.5518 80.928 10.5518C79.2063 10.5518 78.2636 11.6087 78.2636 13.369V14.1769H83.5728Z" fill="#F8F7F3"/>
<path id="Path 5" d="M87.7326 20.3313V9.45302C87.7313 9.42004 87.7367 9.38712 87.7485 9.35636C87.7604 9.3256 87.7784 9.29765 87.8015 9.2743C87.8246 9.25094 87.8522 9.23268 87.8826 9.22067C87.913 9.20865 87.9456 9.20314 87.9782 9.20449H89.29C89.3226 9.20307 89.3553 9.20853 89.3857 9.22051C89.4162 9.2325 89.4439 9.25075 89.467 9.27412C89.4901 9.29748 89.5082 9.32545 89.5201 9.35624C89.532 9.38704 89.5374 9.41999 89.536 9.45302V11.0901C89.8741 10.4545 90.3817 9.92739 91.0011 9.56868C91.6205 9.20997 92.327 9.034 93.0404 9.06076C93.0734 9.05768 93.1067 9.06199 93.138 9.07339C93.1692 9.08478 93.1975 9.10299 93.221 9.12671C93.2445 9.15043 93.2625 9.17908 93.2738 9.21064C93.2851 9.24219 93.2894 9.27588 93.2864 9.3093V10.6143C93.2894 10.6477 93.2851 10.6814 93.2738 10.7129C93.2625 10.7445 93.2445 10.7732 93.221 10.7969C93.1975 10.8206 93.1692 10.8388 93.138 10.8502C93.1067 10.8616 93.0734 10.8659 93.0404 10.8628C91.2986 10.8628 90.1713 11.5674 89.5774 12.9554V20.3313C89.5788 20.3643 89.5734 20.3974 89.5615 20.4282C89.5496 20.459 89.5315 20.487 89.5083 20.5104C89.4852 20.5338 89.4575 20.5521 89.4269 20.5641C89.3964 20.5761 89.3638 20.5815 89.3311 20.5801H87.9782C87.9456 20.5814 87.913 20.5759 87.8826 20.5639C87.8521 20.5518 87.8245 20.5335 87.8014 20.5102C87.7783 20.4868 87.7603 20.4588 87.7485 20.428C87.7366 20.3972 87.7312 20.3643 87.7326 20.3313Z" fill="#F8F7F3"/>
<path id="Path 6" d="M100.327 20.3312V5.66137C100.325 5.62832 100.331 5.59534 100.343 5.56452C100.355 5.53371 100.373 5.50573 100.396 5.48236C100.419 5.459 100.447 5.44075 100.477 5.42878C100.508 5.41681 100.54 5.41138 100.573 5.41283H105.163C108.606 5.41283 110.595 7.44337 110.595 10.7171V15.2337C110.595 18.5489 108.607 20.5795 105.163 20.5795H100.573C100.541 20.5809 100.508 20.5755 100.477 20.5635C100.447 20.5516 100.419 20.5333 100.396 20.51C100.373 20.4867 100.355 20.4587 100.343 20.4279C100.331 20.3971 100.326 20.3642 100.327 20.3312ZM105.184 18.7772C107.397 18.7772 108.668 17.6168 108.668 15.2342V10.7574C108.668 8.37449 107.397 7.21441 105.184 7.21441H102.254V18.7757L105.184 18.7772Z" fill="#F8F7F3"/>
<path id="Path 7" d="M113.361 7.19464V5.10202C113.36 5.06899 113.365 5.03604 113.377 5.00524C113.389 4.97445 113.407 4.94648 113.43 4.92312C113.453 4.89975 113.481 4.8815 113.511 4.86951C113.542 4.85753 113.574 4.85207 113.607 4.85349H114.959C114.992 4.85207 115.025 4.85753 115.055 4.86951C115.086 4.8815 115.113 4.89975 115.137 4.92312C115.16 4.94648 115.178 4.97445 115.19 5.00524C115.201 5.03604 115.207 5.06899 115.206 5.10202V7.19464C115.207 7.22769 115.202 7.26067 115.19 7.29149C115.178 7.32232 115.16 7.35032 115.137 7.37371C115.113 7.3971 115.086 7.41537 115.055 7.42737C115.025 7.43937 114.992 7.44483 114.959 7.44341H113.607C113.574 7.44483 113.542 7.43937 113.511 7.42737C113.481 7.41537 113.453 7.3971 113.43 7.37371C113.407 7.35032 113.389 7.32232 113.377 7.29149C113.365 7.26067 113.36 7.22769 113.361 7.19464ZM113.361 20.3307V9.45294C113.36 9.41992 113.365 9.38696 113.377 9.35616C113.389 9.32537 113.407 9.2974 113.43 9.27404C113.453 9.25067 113.481 9.23242 113.511 9.22043C113.542 9.20845 113.574 9.20299 113.607 9.20441H114.959C114.992 9.20299 115.025 9.20845 115.055 9.22043C115.086 9.23242 115.113 9.25067 115.137 9.27404C115.16 9.2974 115.178 9.32537 115.19 9.35616C115.201 9.38696 115.207 9.41992 115.206 9.45294V20.3312C115.207 20.3643 115.202 20.3972 115.19 20.4281C115.178 20.4589 115.16 20.4869 115.137 20.5103C115.113 20.5337 115.086 20.5519 115.055 20.5639C115.025 20.5759 114.992 20.5814 114.959 20.58H113.607C113.574 20.5814 113.542 20.5759 113.511 20.5639C113.481 20.5519 113.453 20.5337 113.43 20.5103C113.407 20.4869 113.389 20.4589 113.377 20.4281C113.365 20.3972 113.36 20.3643 113.361 20.3312V20.3307Z" fill="#F8F7F3"/>
<path id="Path 8" d="M117.562 21.9056C117.548 21.3625 117.702 20.8285 118.004 20.3788C118.305 19.9291 118.739 19.5863 119.243 19.3988C119.01 19.2301 118.819 19.0098 118.684 18.7547C118.549 18.4997 118.474 18.2167 118.464 17.9276C118.464 17.2646 118.874 16.6637 119.612 16.3519C118.484 15.6889 117.89 14.5493 117.89 13.0572C117.89 10.7986 119.304 9.20332 122.091 9.20332H126.969C127.002 9.20197 127.034 9.20748 127.064 9.2195C127.095 9.23152 127.123 9.24977 127.146 9.27313C127.169 9.29649 127.187 9.32443 127.199 9.35519C127.21 9.38596 127.216 9.41887 127.214 9.45186V10.4673C127.216 10.5003 127.21 10.5332 127.199 10.564C127.187 10.5948 127.169 10.6228 127.146 10.6461C127.123 10.6695 127.095 10.6878 127.065 10.6998C127.034 10.7119 127.002 10.7174 126.969 10.716H124.981C125.657 11.2131 126.17 12.1041 126.17 13.368C126.17 15.4606 124.755 16.9523 122.112 16.9523H121.169C120.39 16.9523 120.062 17.3047 120.062 17.7402C120.062 18.1757 120.411 18.5281 121.169 18.5281H123.505C126.231 18.5281 127.276 19.8541 127.276 21.5124C127.276 23.3985 125.903 24.931 122.235 24.931C118.853 24.9305 117.562 23.6045 117.562 21.9056ZM122.316 23.5838C124.53 23.5838 125.493 22.7756 125.493 21.6361C125.493 20.8281 125.042 20.041 123.382 20.041H121.312C119.755 20.041 119.284 20.8489 119.284 21.6776C119.284 22.8171 120.166 23.5838 122.316 23.5838ZM122.091 15.5655C123.587 15.5655 124.53 14.7776 124.53 13.1412C124.53 11.6493 123.731 10.6757 122.071 10.6757C120.493 10.6757 119.591 11.5457 119.591 13.0791C119.591 14.6126 120.473 15.5655 122.091 15.5655Z" fill="#F8F7F3"/>
<path id="Path 9" d="M129.301 7.19464V5.10202C129.3 5.06904 129.306 5.03612 129.317 5.00536C129.329 4.9746 129.347 4.94665 129.37 4.9233C129.393 4.89994 129.421 4.88168 129.451 4.86967C129.482 4.85765 129.514 4.85214 129.547 4.85349H130.9C130.933 4.85207 130.965 4.85753 130.996 4.86951C131.026 4.8815 131.054 4.89975 131.077 4.92312C131.1 4.94648 131.118 4.97445 131.13 5.00524C131.142 5.03604 131.147 5.06899 131.146 5.10202V7.19464C131.147 7.22769 131.142 7.26067 131.13 7.29149C131.118 7.32232 131.1 7.35032 131.077 7.37371C131.054 7.3971 131.026 7.41537 130.996 7.42737C130.965 7.43937 130.933 7.44483 130.9 7.44341H129.547C129.514 7.44477 129.482 7.43925 129.451 7.42722C129.421 7.41519 129.393 7.39691 129.37 7.37353C129.347 7.35014 129.329 7.32217 129.317 7.29138C129.305 7.26059 129.3 7.22765 129.301 7.19464ZM129.301 20.3307V9.45294C129.3 9.41996 129.306 9.38704 129.317 9.35628C129.329 9.32552 129.347 9.29758 129.37 9.27422C129.393 9.25086 129.421 9.2326 129.451 9.22059C129.482 9.20857 129.514 9.20306 129.547 9.20441H130.9C130.933 9.20299 130.965 9.20845 130.996 9.22043C131.026 9.23242 131.054 9.25067 131.077 9.27404C131.1 9.2974 131.118 9.32537 131.13 9.35616C131.142 9.38696 131.147 9.41992 131.146 9.45294V20.3312C131.147 20.3643 131.142 20.3972 131.13 20.4281C131.118 20.4589 131.1 20.4869 131.077 20.5103C131.054 20.5337 131.026 20.5519 130.996 20.5639C130.965 20.5759 130.933 20.5814 130.9 20.58H129.547C129.514 20.5813 129.482 20.5758 129.451 20.5638C129.421 20.5518 129.393 20.5335 129.37 20.5101C129.347 20.4867 129.329 20.4587 129.317 20.4279C129.305 20.3972 129.3 20.3642 129.301 20.3312V20.3307Z" fill="#F8F7F3"/>
<path id="Path 10" d="M134.899 17.6788V10.7575H133.383C133.35 10.7589 133.318 10.7535 133.287 10.7415C133.257 10.7295 133.229 10.7112 133.206 10.6878C133.183 10.6644 133.165 10.6364 133.153 10.6056C133.141 10.5748 133.136 10.5418 133.137 10.5087V9.45206C133.136 9.41903 133.141 9.38607 133.153 9.35528C133.165 9.32448 133.183 9.29651 133.206 9.27315C133.229 9.24979 133.257 9.23153 133.287 9.21955C133.318 9.20756 133.35 9.20211 133.383 9.20352H134.899V6.53171C134.898 6.49866 134.903 6.46568 134.915 6.43485C134.927 6.40403 134.945 6.37603 134.968 6.35264C134.992 6.32925 135.019 6.31098 135.05 6.29898C135.08 6.28698 135.113 6.28152 135.146 6.28293H136.477C136.51 6.28152 136.542 6.28698 136.573 6.29898C136.603 6.31098 136.631 6.32925 136.654 6.35264C136.677 6.37603 136.695 6.40403 136.707 6.43485C136.719 6.46568 136.725 6.49866 136.723 6.53171V9.20567H139.121C139.154 9.20426 139.186 9.20971 139.217 9.2217C139.247 9.23368 139.275 9.25193 139.298 9.2753C139.321 9.29866 139.339 9.32663 139.351 9.35743C139.363 9.38822 139.368 9.42118 139.367 9.45421V10.5109C139.368 10.5439 139.363 10.5769 139.351 10.6078C139.339 10.6386 139.321 10.6666 139.298 10.69C139.275 10.7134 139.247 10.7316 139.217 10.7436C139.186 10.7556 139.154 10.7611 139.121 10.7597H136.723V17.4107C136.723 18.4051 137.236 18.9024 138.282 18.9024H139.122C139.154 18.901 139.187 18.9064 139.217 18.9184C139.248 18.9304 139.276 18.9487 139.299 18.9721C139.322 18.9955 139.34 19.0235 139.352 19.0543C139.364 19.0851 139.369 19.1181 139.368 19.1511V20.3313C139.369 20.3643 139.364 20.3973 139.352 20.4281C139.34 20.459 139.322 20.4869 139.299 20.5103C139.276 20.5337 139.248 20.552 139.217 20.564C139.187 20.576 139.154 20.5815 139.122 20.58H138.015C136.047 20.5796 134.899 19.5021 134.899 17.6788Z" fill="#F8F7F3"/>
<path id="Path 11" d="M147.556 20.3312V18.8602C147.209 19.4642 146.709 19.9634 146.107 20.3059C145.505 20.6483 144.824 20.8216 144.133 20.8077C142.084 20.8077 140.731 19.4609 140.731 17.4304C140.731 15.3172 142.268 14.0118 145.486 14.0118H147.494V12.5822C147.494 11.1941 146.756 10.5311 145.26 10.5311C143.949 10.5311 143.293 11.0489 142.945 12.0641C142.94 12.0958 142.928 12.126 142.91 12.1525C142.892 12.179 142.868 12.2011 142.841 12.2171C142.813 12.2331 142.782 12.2427 142.751 12.2451C142.719 12.2476 142.687 12.2428 142.658 12.2312L141.367 11.8788C141.334 11.8745 141.304 11.8631 141.276 11.8455C141.249 11.8279 141.226 11.8045 141.208 11.777C141.19 11.7494 141.179 11.7182 141.174 11.6857C141.17 11.6532 141.173 11.6201 141.182 11.5887C141.612 10.0347 142.945 8.97827 145.301 8.97827C147.822 8.97827 149.318 10.1383 149.318 12.5418V20.3312C149.32 20.3642 149.314 20.3972 149.302 20.4281C149.29 20.4589 149.272 20.4869 149.249 20.5103C149.226 20.5337 149.198 20.552 149.168 20.564C149.137 20.576 149.105 20.5814 149.072 20.5799H147.802C147.769 20.5814 147.736 20.5759 147.706 20.5639C147.675 20.5519 147.648 20.5336 147.625 20.5102C147.601 20.4868 147.583 20.4588 147.572 20.428C147.56 20.3972 147.554 20.3642 147.556 20.3312ZM144.625 19.2537C145.957 19.2537 146.961 18.4252 147.494 17.1198V15.2962H145.486C143.559 15.2962 142.514 15.9802 142.514 17.3256C142.514 18.4658 143.273 19.2532 144.625 19.2532V19.2537Z" fill="#F8F7F3"/>
<path id="Path 12" d="M152.155 20.3312V5.10203C152.154 5.06905 152.159 5.03613 152.171 5.00537C152.183 4.97461 152.201 4.94667 152.224 4.92331C152.247 4.89995 152.275 4.88169 152.305 4.86968C152.335 4.85766 152.368 4.85215 152.401 4.8535H153.753C153.786 4.85205 153.819 4.85748 153.849 4.86945C153.88 4.88142 153.907 4.89966 153.931 4.92303C153.954 4.9464 153.972 4.97438 153.984 5.0052C153.996 5.03601 154.001 5.06898 154 5.10203V20.3312C154.001 20.3643 153.996 20.3973 153.984 20.4281C153.972 20.459 153.954 20.487 153.931 20.5104C153.908 20.5338 153.88 20.552 153.849 20.564C153.819 20.576 153.786 20.5814 153.753 20.58H152.401C152.368 20.5813 152.335 20.5758 152.305 20.5638C152.275 20.5518 152.247 20.5335 152.224 20.5101C152.201 20.4867 152.183 20.4587 152.171 20.428C152.159 20.3972 152.154 20.3642 152.155 20.3312Z" fill="#F8F7F3"/>
</g>
</g>
<path id="Path 13" d="M21.0066 28.0286H10.8526V5.48568C10.8526 4.03079 10.2809 2.63548 9.2634 1.60672C8.24586 0.577952 6.86579 0 5.42677 0C3.98776 0 2.60769 0.577952 1.59015 1.60672C0.572619 2.63548 0.000976563 4.03079 0.000976563 5.48568V24.451C0.000976513 25.9057 0.572429 27.3007 1.58966 28.3295C2.60689 29.3582 3.9866 29.9363 5.42536 29.9367H8.96393V33.5143C8.96393 34.9692 9.53557 36.3645 10.5531 37.3933C11.5706 38.422 12.9507 39 14.3897 39H21.0061C22.4452 39 23.8252 38.422 24.8428 37.3933C25.8603 36.3645 26.432 34.9692 26.432 33.5143C26.432 32.0594 25.8603 30.6641 24.8428 29.6354C23.8252 28.6066 22.4452 28.0286 21.0061 28.0286H21.0066ZM8.96346 28.0286H5.42536C4.48688 28.0286 3.58683 27.6517 2.92322 26.9808C2.25961 26.3098 1.88679 25.3999 1.88679 24.451V5.48568C1.88679 4.53684 2.25961 3.62686 2.92322 2.95593C3.58683 2.28499 4.48688 1.90807 5.42536 1.90807C6.36385 1.90807 7.26389 2.28499 7.9275 2.95593C8.59111 3.62686 8.96393 4.53684 8.96393 5.48568L8.96346 28.0286ZM21.0066 37.0919H14.3902C13.4517 37.0919 12.5517 36.7149 11.8881 36.044C11.2245 35.3731 10.8517 34.4631 10.8516 33.5143V29.9367H21.0057C21.9442 29.9367 22.8442 30.3136 23.5078 30.9846C24.1714 31.6555 24.5442 32.5655 24.5442 33.5143C24.5442 34.4632 24.1714 35.3731 23.5078 36.0441C22.8442 36.715 21.9442 37.0919 21.0057 37.0919H21.0066ZM30.3106 29.9367C31.7496 29.9367 33.1296 29.3587 34.1472 28.33C35.1647 27.3012 35.7364 25.9059 35.7364 24.451V14.549C35.7365 13.8286 35.5962 13.1152 35.3237 12.4495C35.0511 11.7839 34.6515 11.1791 34.1477 10.6696C33.6439 10.1601 33.0458 9.75592 32.3875 9.48015C31.7292 9.20438 31.0236 9.06241 30.311 9.06235H26.7725V5.48568C26.7725 4.03079 26.2008 2.63548 25.1833 1.60672C24.1658 0.577952 22.7857 0 21.3467 0H18.4839C17.0449 0 15.6648 0.577952 14.6473 1.60672C13.6298 2.63548 13.0581 4.03079 13.0581 5.48568C13.0581 6.94058 13.6298 8.33588 14.6473 9.36465C15.6648 10.3934 17.0449 10.9714 18.4839 10.9714H24.885V24.451C24.885 25.1714 25.0253 25.8848 25.298 26.5503C25.5707 27.2159 25.9704 27.8207 26.4743 28.3301C26.9781 28.8395 27.5763 29.2435 28.2346 29.5192C28.8929 29.7949 29.5985 29.9367 30.311 29.9367H30.3106ZM18.4839 9.06235C17.5454 9.06235 16.6454 8.68542 15.9818 8.01449C15.3182 7.34356 14.9454 6.43357 14.9454 5.48473C14.9454 4.53588 15.3182 3.62591 15.9818 2.95497C16.6454 2.28404 17.5454 1.90711 18.4839 1.90711H21.3464C22.2849 1.90711 23.185 2.28404 23.8486 2.95497C24.5122 3.62591 24.885 4.53588 24.885 5.48473V9.06235H18.4839ZM30.3108 28.0277C29.3725 28.0276 28.4727 27.6508 27.8091 26.9801C27.1456 26.3093 26.7727 25.3996 26.7725 24.451V10.9723H30.311C30.7757 10.9723 31.2359 11.0649 31.6652 11.2447C32.0945 11.4244 32.4846 11.688 32.8132 12.0202C33.1418 12.3524 33.4024 12.7468 33.5802 13.1809C33.7581 13.6149 33.8496 14.0801 33.8496 14.5499V24.452C33.8493 25.4006 33.4764 26.3104 32.8128 26.9811C32.1493 27.6518 31.2493 28.0286 30.311 28.0286L30.3108 28.0277Z" fill="#F8F7F3"/>
<g id="Group 5">
<g id="Group 3">
<path id="Path 14" d="M52.7622 31.7313C52.7622 29.3439 54.2336 28.1501 56.0493 28.1501C57.865 28.1501 59.3366 29.3439 59.3366 31.7313C59.3366 34.1229 57.865 35.3137 56.0493 35.3137C54.2336 35.3137 52.7622 34.1343 52.7622 31.7313ZM56.0493 34.4053C56.9466 34.4053 57.6718 33.4582 57.6718 31.7313C57.6718 30.0212 56.9457 29.0574 56.0493 29.0574C55.1529 29.0574 54.427 30.021 54.427 31.7313C54.427 33.4467 55.1531 34.4056 56.0493 34.4056V34.4053Z" fill="#F8F7F3"/>
<path id="Path 15" fill-rule="evenodd" clip-rule="evenodd" d="M46.3906 28.4102V35.0502H47.5317V30.5901L51.0563 35.0504H52.0155V28.4102H50.9292V32.0709L48.0028 28.4102H46.3906Z" fill="#F8F7F3"/>
<path id="Path 16" fill-rule="evenodd" clip-rule="evenodd" d="M83.1551 28.4102L80.4912 35.0504H81.6419L82.3763 33.224H84.7946L85.5378 35.0504H87.4033L84.7113 28.4102H83.1551ZM82.7473 32.2709L83.5809 30.1905L84.414 32.2709H82.7473Z" fill="#F8F7F3"/>
<path id="Path 17" fill-rule="evenodd" clip-rule="evenodd" d="M72.4376 32.7608C72.4069 33.3692 72.3606 33.9713 71.6942 34.1959C71.3163 34.2999 70.9167 34.2905 70.544 34.1687C70.4105 34.1211 70.2893 34.0435 70.1898 33.9417C69.9681 33.7204 69.8809 33.2493 69.8724 32.9428V28.4102H68.1606V32.7608C68.1772 33.3618 68.2721 33.966 68.6587 34.4507C69.322 35.2808 70.5381 35.4002 71.5212 35.2767C72.1168 35.2299 72.6762 34.9688 73.0979 34.5409C73.3948 34.193 73.5813 33.7627 73.633 33.3061C73.6603 33.1257 73.6722 32.9433 73.6686 32.7608V28.4102H72.4369V32.7608H72.4376Z" fill="#F8F7F3"/>
<path id="Path 18" fill-rule="evenodd" clip-rule="evenodd" d="M76.4775 29.3458C77.2315 29.3458 77.98 29.2164 78.308 30.009C78.4374 30.3223 78.4459 31.0328 78.1444 31.3348C77.7852 31.6948 77.2345 31.7295 76.7587 31.771L78.5161 35.0504H80.3185L78.7243 32.1253C79.675 31.7887 80.1214 31.2453 80.0744 30.2089C80.0236 29.0868 79.0875 28.4102 78.0178 28.4102H74.7744V35.0504H76.4775V29.3458Z" fill="#F8F7F3"/>
<path id="Path 19" fill-rule="evenodd" clip-rule="evenodd" d="M65.389 35.0504L62.8521 28.4102H61.52L59.0562 35.0502H60.252L61.9097 30.5617L63.5945 35.0502L65.389 35.0504Z" fill="#F8F7F3"/>
<path id="Path 20" fill-rule="evenodd" clip-rule="evenodd" d="M65.4703 28.4102H64.075L63.6499 29.5454L64.2568 31.135L64.4743 30.562L66.114 35.0504H68.0079L65.4708 28.4104L65.4703 28.4102Z" fill="#F8F7F3"/>
<path id="Path 21" fill-rule="evenodd" clip-rule="evenodd" d="M62.372 32.7336L61.52 35.0495H62.6063L62.9229 34.1766L62.3711 32.7327L62.372 32.7336Z" fill="#F8F7F3"/>
</g>
<g id="Group 4">
<path id="Path 22" d="M95.8786 34.1876C95.6257 34.511 95.3011 34.7697 94.931 34.9429C94.561 35.1161 94.1559 35.1989 93.7483 35.1846C91.7674 35.1846 90.5859 33.5482 90.5859 31.7987C90.5859 29.8426 91.6462 28.1501 93.7483 28.1501C95.1994 28.1501 96.353 28.8081 96.604 30.3786H95.7206C95.5437 29.363 94.7345 28.9024 93.7483 28.9024C92.1393 28.9024 91.4698 30.313 91.4698 31.7516C91.4698 33.1531 92.2696 34.4321 93.7483 34.4321C95.1158 34.4321 95.9345 33.4635 95.8786 32.2411H93.7578V31.4883H96.6696V35.0244H96.1114L95.8786 34.1876Z" fill="#F8F7F3"/>
<path id="Path 23" d="M97.8169 30.1622H98.561V31.1871H98.5794C98.9608 30.4069 99.4914 30.0213 100.347 30.0493V30.8959C99.0717 30.8959 98.6075 31.6295 98.6075 32.8615V35.0243H97.8169V30.1622Z" fill="#F8F7F3"/>
<path id="Path 24" d="M102.851 30.0493C104.376 30.0493 105.186 31.1686 105.186 32.5982C105.186 34.0182 104.376 35.1372 102.851 35.1372C101.325 35.1372 100.516 34.0182 100.516 32.5982C100.516 31.1686 101.325 30.0493 102.851 30.0493ZM102.851 34.432C103.679 34.432 104.348 33.7735 104.348 32.5982C104.348 31.4133 103.679 30.7551 102.851 30.7551C102.022 30.7551 101.353 31.4133 101.353 32.5982C101.353 33.7726 102.023 34.432 102.851 34.432Z" fill="#F8F7F3"/>
<path id="Path 25" d="M110.1 35.0244H109.356V34.2533H109.337C109.186 34.535 108.959 34.7675 108.682 34.9239C108.406 35.0803 108.091 35.1541 107.774 35.1366C106.509 35.1366 106.119 34.4032 106.119 33.3592V30.1624H106.909V33.454C106.9 33.5857 106.919 33.7179 106.965 33.8415C107.011 33.9652 107.082 34.0773 107.175 34.1703C107.268 34.2633 107.379 34.3349 107.502 34.3802C107.625 34.4255 107.756 34.4434 107.886 34.4328C108.844 34.4328 109.309 33.7839 109.309 32.9091V30.1635H110.1V35.0244Z" fill="#F8F7F3"/>
<path id="Path 26" d="M111.321 30.1622H112.111V30.8209H112.13C112.39 30.2845 113.004 30.0493 113.665 30.0493C115.144 30.0493 115.879 31.2345 115.879 32.6072C115.879 33.98 115.153 35.138 113.684 35.138C113.191 35.138 112.484 34.9501 112.131 34.3761H112.112V36.887H111.321L111.321 30.1622ZM113.554 30.7551C112.493 30.7551 112.084 31.6766 112.084 32.5886C112.084 33.5481 112.512 34.432 113.6 34.432C114.679 34.432 115.042 33.5009 115.042 32.5511C115.041 31.6391 114.576 30.7551 113.554 30.7551Z" fill="#F8F7F3"/>
</g>
</g>
</g>
</g>
</g>
</g>
</g>
</g>
</g>
</g>
<defs>

<clipPath id="clip0_3005_2">
<rect width="154" height="39" fill="white"/>
</clipPath>
</defs>
</svg>
