<svg width="195" height="153" viewBox="0 0 195 153" fill="none" xmlns="http://www.w3.org/2000/svg">

<g id="home">

<g id="Investors">


<g id="Container">
<g id="Section Container">
<g id="grid">
<g id="logo1">
<path id="multicoin capital" d="M25.6752 68.4798L26.837 79.4727C26.8844 79.9095 26.9081 80.2978 26.9081 80.6132C26.9081 81.681 26.5999 82.045 24.964 82.0935V82.506C25.8649 82.4818 27.3586 82.4575 28.8997 82.4575C30.4407 82.4575 32.0292 82.4818 33.0724 82.506V82.0935C31.2231 82.0207 31.0097 81.4141 30.7964 79.4727L29.7295 69.5718C29.7057 69.3291 29.6821 68.9651 29.6821 68.7224C29.6821 67.315 30.0377 66.6598 31.9581 66.6598V66.2472C30.8438 66.2715 29.8243 66.2715 28.9233 66.2715C27.4771 66.2715 26.3154 66.2472 25.5804 66.2229L22.2612 76.0996L18.8234 66.2229C18.041 66.2472 16.8793 66.2715 15.6701 66.2715C14.4609 66.2715 13.2044 66.2715 12.2797 66.2472V66.6598C14.1053 66.6598 14.5321 67.315 14.5321 68.7224C14.5321 68.9894 14.5084 69.2806 14.4847 69.5718L13.2281 79.5455C12.991 81.3412 12.5405 82.0693 10.8335 82.1178V82.506C11.7107 82.4818 12.5879 82.4575 13.5837 82.4575C14.5795 82.4575 15.6464 82.4818 16.8793 82.506V82.0935C14.7454 82.0207 14.2002 81.7538 14.2002 80.3948C14.2002 80.1036 14.2239 79.6911 14.2713 79.3028L15.433 68.407L20.6253 82.5546H20.7912L25.6752 68.4798ZM44.6344 81.6324V81.3898L44.4684 81.3655C43.9942 81.2927 43.8756 81.0258 43.8756 80.322V75.8326C43.8756 73.2603 43.9231 72.047 43.9705 71.2462L43.8756 71.1977C42.6665 71.5859 40.9595 71.9742 39.4421 72.0956V72.3868L39.6792 72.4596C40.343 72.6537 40.4141 73.042 40.4141 73.4545V80.8316C40.1534 80.8802 39.7266 80.8802 39.5606 80.8802C38.0433 80.8802 37.6876 79.958 37.6876 77.7012V75.8326C37.6876 73.2603 37.735 72.047 37.7825 71.2462L37.6876 71.1977C36.4785 71.5859 34.7477 71.9742 33.2304 72.0956V72.3868L33.4675 72.4596C34.1313 72.6537 34.2025 73.042 34.2025 73.4545V79.5698C34.2025 81.3655 35.1508 82.7487 36.763 82.7487C37.9248 82.7487 39.4421 81.8751 40.4141 81.05C40.3905 81.7295 40.343 82.2634 40.2719 82.7002L40.3667 82.7487C41.4337 82.3847 43.4015 81.9479 44.6344 81.6324ZM50.7021 82.142L50.5599 82.1178C49.8962 81.9965 49.8962 81.8751 49.8962 79.9823V68.6982C49.8962 66.7083 49.9673 65.0581 50.0148 64.5485L49.8962 64.5C48.8529 64.9125 46.7191 65.592 45.5336 65.8589V65.9803L46.15 66.8782C46.4345 67.2907 46.4345 67.6062 46.4345 67.9216V79.9823C46.4345 81.8751 46.4345 81.9965 45.7707 82.1178L45.6284 82.142V82.506C46.15 82.4818 47.1695 82.4575 48.1653 82.4575C49.1848 82.4575 50.1805 82.4818 50.7021 82.506V82.142ZM55.5 82.7487C57.3256 82.7487 58.8432 81.4626 59.6728 80.0308L59.5781 79.9095C58.8904 80.322 58.2741 80.4191 57.6579 80.4191C56.6858 80.4191 55.8323 80.2735 55.8323 79.2785V72.7993L58.7246 72.8478C59.009 72.6051 59.4359 71.7558 59.4359 71.3433L55.8323 71.4646C55.8323 70.7366 55.9269 69.4262 55.9745 69.0136L55.8323 68.9409C54.6941 70.0814 52.7263 71.5859 51.4223 72.3868V72.4838L52.3944 73.7214C52.3704 74.9105 52.3704 77.2644 52.3704 80.2735C52.3704 81.7538 53.6984 82.7487 55.5 82.7487ZM64.8103 67.5334C64.8103 66.3928 63.9328 65.5677 62.9136 65.5677C61.894 65.5677 61.0169 66.3928 61.0169 67.5334C61.0169 68.6739 61.894 69.499 62.9136 69.499C63.9328 69.499 64.8103 68.6739 64.8103 67.5334ZM65.3319 82.142L65.1897 82.1178C64.5255 81.9965 64.5255 81.8751 64.5255 79.9823V74.7649C64.5255 72.775 64.5731 71.5859 64.6206 71.0763L64.502 71.0278C63.5063 71.5132 61.4671 72.3139 60.2817 72.678V72.7993L60.7797 73.6729C61.0641 74.134 61.0641 74.4009 61.0641 74.7164V79.9823C61.0641 81.8751 61.0641 81.9965 60.4003 82.1178L60.2581 82.142V82.506C60.7797 82.4818 61.7993 82.4575 62.795 82.4575C63.8142 82.4575 64.8103 82.4818 65.3319 82.506V82.142ZM66.2147 77.41C66.2147 80.6132 68.3722 82.7487 71.3596 82.7487C73.3034 82.7487 75.2951 81.3412 75.9589 79.2543L75.8403 79.1815C75.1765 80.0308 74.2994 80.3706 73.446 80.3706C71.0988 80.3706 69.6051 78.5506 69.6051 75.6385C69.6051 73.5515 70.6243 71.9014 71.9523 71.9014C73.2562 71.9014 72.7107 74.3767 74.4416 74.3767C75.0818 74.3767 75.7216 73.8185 75.7216 73.1148C75.7216 71.7315 73.92 71.1006 72.4739 71.1006C69.2968 71.1006 66.2147 73.6972 66.2147 77.41ZM82.7114 71.1006C79.5579 71.1006 76.642 73.5273 76.642 76.9975C76.642 80.4191 79.5579 82.7487 82.7114 82.7487C85.8881 82.7487 88.8044 80.322 88.8044 76.8519C88.8044 73.4302 85.8881 71.1006 82.7114 71.1006ZM82.7114 82.2148C81.2648 82.2148 80.5064 79.7396 80.5064 76.7062C80.5064 73.5273 81.2648 71.6345 82.7114 71.6345C84.1811 71.6345 84.94 74.1097 84.94 77.1431C84.94 80.322 84.1811 82.2148 82.7114 82.2148ZM94.3785 67.5334C94.3785 66.3928 93.5011 65.5677 92.4818 65.5677C91.4622 65.5677 90.5852 66.3928 90.5852 67.5334C90.5852 68.6739 91.4622 69.499 92.4818 69.499C93.5011 69.499 94.3785 68.6739 94.3785 67.5334ZM94.9001 82.142L94.7579 82.1178C94.0938 81.9965 94.0938 81.8751 94.0938 79.9823V74.7649C94.0938 72.775 94.1413 71.5859 94.1888 71.0763L94.0702 71.0278C93.0745 71.5132 91.0353 72.3139 89.8499 72.678V72.7993L90.3479 73.6729C90.6323 74.134 90.6323 74.4009 90.6323 74.7164V79.9823C90.6323 81.8751 90.6323 81.9965 89.9685 82.1178L89.8263 82.142V82.506C90.3479 82.4818 91.3676 82.4575 92.3632 82.4575C93.3825 82.4575 94.3785 82.4818 94.9001 82.506V82.142ZM107.353 82.142L107.21 82.1178C106.547 81.9965 106.547 81.8751 106.547 79.9823V74.2796C106.547 72.4353 105.385 71.1006 103.867 71.1006C102.635 71.1006 101.141 72.2169 100.145 73.0177C100.169 72.4353 100.193 71.5132 100.24 71.0763L100.121 71.0278C99.1258 71.5132 97.0865 72.3139 95.9012 72.678V72.7993L96.3992 73.6729C96.6836 74.134 96.6836 74.4009 96.6836 74.7164V79.9823C96.6836 81.8751 96.6836 81.9965 96.0198 82.1178L95.8776 82.142V82.506C96.3992 82.4818 97.4188 82.4575 98.4145 82.4575C99.4341 82.4575 100.43 82.4818 100.951 82.506V82.142L100.809 82.1178C100.145 81.9965 100.145 81.8751 100.145 79.9823V73.3332C100.501 73.1875 100.88 73.1633 101.117 73.1633C102.563 73.1633 103.085 74.5708 103.085 76.7305V79.9823C103.085 81.8751 103.085 81.9965 102.421 82.1178L102.279 82.142V82.506C102.801 82.4818 103.82 82.4575 104.816 82.4575C105.835 82.4575 106.831 82.4818 107.353 82.506V82.142ZM123.01 80.589C119.786 80.589 117.273 77.774 117.273 73.4788C117.273 69.3534 119.525 66.9024 122.346 66.9024C123.769 66.9024 124.812 67.5091 125.571 68.407C126.234 69.1592 126.827 70.324 127.254 71.5132L127.491 71.3675L126.946 67.2179C125.404 66.4414 124.029 66.0045 122.204 66.0045C117.438 66.0045 113.052 69.3291 113.052 74.6921C113.052 79.7396 117.059 82.7487 121.374 82.7487C123.579 82.7487 125.713 81.8994 127.23 80.3706L128.226 77.4828L127.965 77.3615C126.875 79.6425 125.191 80.589 123.01 80.589ZM129.033 80.0551C129.033 81.6324 130.076 82.6517 131.546 82.6517C132.803 82.6517 133.632 81.5839 134.178 80.8802C134.604 81.9479 135.434 82.6759 136.833 82.6759C138.161 82.6759 139.204 81.4141 139.323 80.322L139.251 80.2735C139.062 80.4191 138.825 80.5647 138.469 80.5647C137.852 80.5647 137.568 80.2492 137.568 79.4727C137.568 77.9924 137.687 75.2745 137.687 73.5758C137.687 71.7073 135.6 71.1006 134.249 71.1006C131.831 71.1006 129.223 73.8913 129.223 75.5172C129.223 75.7113 129.294 75.7841 129.388 75.7841C129.744 75.7841 131.167 75.4929 131.499 75.3959C131.38 74.9591 131.285 74.3524 131.285 73.8185C131.285 73.139 131.57 72.7993 132.257 72.7993C133.656 72.7993 134.225 73.7214 134.225 74.5222V76.4879L131.048 77.8711C129.792 78.4292 129.033 78.7932 129.033 80.0551ZM134.201 76.9004L134.178 80.6132C134.036 80.6618 133.917 80.686 133.751 80.686C132.968 80.686 132.423 80.1764 132.423 79.133C132.423 78.4049 132.755 78.0167 133.206 77.6769L134.201 76.9004ZM145.851 88.0875L144.832 88.0146C144.192 87.9661 144.168 87.8448 144.168 85.952V82.3605C144.903 82.6274 145.448 82.7487 146.207 82.7487C149.17 82.7487 152.276 80.4191 152.276 76.1481C152.276 73.139 150.545 71.1006 148.008 71.1006C146.325 71.1006 144.95 72.3868 144.168 73.0662C144.168 72.5566 144.215 71.5374 144.263 71.0763L144.144 71.0278C143.148 71.5132 141.109 72.3382 139.924 72.678V72.7993L140.422 73.6729C140.706 74.134 140.706 74.4009 140.706 74.7164V85.9762C140.706 87.8691 140.706 87.9904 140.042 88.1117L139.9 88.136V88.5C140.564 88.4757 141.417 88.4515 142.556 88.4515C143.694 88.4515 145.093 88.4757 145.851 88.5V88.0875ZM144.168 78.7689V73.2846C144.523 73.1875 144.95 73.1633 145.306 73.1633C147.25 73.1633 148.53 74.959 148.53 77.5313C148.53 80.322 147.534 82.0207 146.017 82.0207C144.855 82.0207 144.168 81.1714 144.168 78.7689ZM157.845 67.5334C157.845 66.3928 156.968 65.5677 155.949 65.5677C154.929 65.5677 154.052 66.3928 154.052 67.5334C154.052 68.6739 154.929 69.499 155.949 69.499C156.968 69.499 157.845 68.6739 157.845 67.5334ZM158.367 82.142L158.225 82.1178C157.561 81.9965 157.561 81.8751 157.561 79.9823V74.7649C157.561 72.775 157.608 71.5859 157.656 71.0763L157.537 71.0278C156.541 71.5132 154.503 72.3139 153.317 72.678V72.7993L153.815 73.6729C154.1 74.134 154.1 74.4009 154.1 74.7164V79.9823C154.1 81.8751 154.1 81.9965 153.435 82.1178L153.293 82.142V82.506C153.815 82.4818 154.834 82.4575 155.83 82.4575C156.85 82.4575 157.845 82.4818 158.367 82.506V82.142ZM163.162 82.7487C164.987 82.7487 166.505 81.4626 167.335 80.0308L167.239 79.9095C166.552 80.322 165.935 80.4191 165.319 80.4191C164.347 80.4191 163.494 80.2735 163.494 79.2785V72.7993L166.386 72.8478C166.671 72.6051 167.097 71.7558 167.097 71.3433L163.494 71.4646C163.494 70.7366 163.588 69.4262 163.636 69.0136L163.494 68.9409C162.355 70.0814 160.388 71.5859 159.084 72.3868V72.4838L160.056 73.7214C160.032 74.9105 160.032 77.2644 160.032 80.2735C160.032 81.7538 161.36 82.7487 163.162 82.7487ZM167.941 80.0551C167.941 81.6324 168.984 82.6517 170.454 82.6517C171.71 82.6517 172.54 81.5839 173.086 80.8802C173.512 81.9479 174.342 82.6759 175.741 82.6759C177.069 82.6759 178.112 81.4141 178.23 80.322L178.159 80.2735C177.97 80.4191 177.732 80.5647 177.377 80.5647C176.76 80.5647 176.476 80.2492 176.476 79.4727C176.476 77.9924 176.594 75.2745 176.594 73.5758C176.594 71.7073 174.508 71.1006 173.157 71.1006C170.738 71.1006 168.13 73.8913 168.13 75.5172C168.13 75.7113 168.202 75.7841 168.296 75.7841C168.652 75.7841 170.074 75.4929 170.406 75.3959C170.288 74.9591 170.193 74.3524 170.193 73.8185C170.193 73.139 170.478 72.7993 171.165 72.7993C172.564 72.7993 173.133 73.7214 173.133 74.5222V76.4879L169.956 77.8711C168.699 78.4292 167.941 78.7932 167.941 80.0551ZM173.109 76.9004L173.086 80.6132C172.943 80.6618 172.825 80.686 172.659 80.686C171.876 80.686 171.331 80.1764 171.331 79.133C171.331 78.4049 171.663 78.0167 172.113 77.6769L173.109 76.9004ZM183.833 82.142L183.691 82.1178C183.027 81.9965 183.027 81.8751 183.027 79.9823V68.6982C183.027 66.7083 183.099 65.0581 183.146 64.5485L183.027 64.5C181.984 64.9125 179.85 65.592 178.665 65.8589V65.9803L179.281 66.8782C179.566 67.2907 179.566 67.6062 179.566 67.9216V79.9823C179.566 81.8751 179.566 81.9965 178.902 82.1178L178.76 82.142V82.506C179.281 82.4818 180.301 82.4575 181.297 82.4575C182.316 82.4575 183.312 82.4818 183.833 82.506V82.142Z" fill="#F8F7F3"/>
</g>
</g>
</g>
</g>
</g>
</g>
<defs>

</defs>
</svg>
