<svg width="156" height="23" viewBox="0 0 156 23" fill="none" xmlns="http://www.w3.org/2000/svg">

<g id="home">

<g id="Investors">


<g id="Container">
<g id="Section Container">
<g id="grid">
<g id="logo1">
<g id="Spartan" clip-path="url(#clip0_3005_2)">
<g id="Clip path group">
<mask id="mask0_3005_2" style="mask-type:luminance" maskUnits="userSpaceOnUse" x="0" y="0" width="156" height="23">
<g id="a">
<path id="Vector" d="M0 0H156V23H0V0Z" fill="white"/>
</g>
</mask>
<g mask="url(#mask0_3005_2)">
<g id="Group">
<path id="Vector_2" d="M12.7758 4.30429L10.2946 5.74343C9.98399 5.12783 9.5219 4.5972 8.94975 4.19914C8.3529 3.88745 7.67708 3.74963 7.00249 3.80204C6.32789 3.85446 5.68285 4.09491 5.14389 4.49486C4.87628 4.70396 4.66135 4.97028 4.51563 5.27333C4.36991 5.57638 4.29729 5.90807 4.30337 6.24286C4.30337 7.20689 5.03832 7.98429 6.50889 8.57572L8.52613 9.384C9.91883 9.86401 11.1621 10.6854 12.137 11.7694C12.916 12.7525 13.3201 13.9701 13.2801 15.2129C13.3062 16.0472 13.1554 16.8779 12.8371 17.6525C12.5189 18.4272 12.0402 19.1292 11.431 19.7143C10.8175 20.3064 10.0879 20.7711 9.28592 21.0805C8.48397 21.3899 7.62628 21.5377 6.76441 21.5149C5.16615 21.5686 3.60734 21.0232 2.40717 19.9903C1.21166 18.839 0.462886 17.3174 0.289062 15.686L3.38889 15.0289C3.42894 15.8799 3.68299 16.7083 4.12855 17.4406C4.43118 17.8084 4.80837 18.1111 5.23641 18.3296C5.66446 18.5482 6.13412 18.6779 6.61591 18.7106C7.0977 18.7433 7.5812 18.6783 8.03606 18.5197C8.49091 18.3611 8.9073 18.1123 9.25906 17.7889C9.57151 17.4742 9.81636 17.1016 9.97919 16.6931C10.142 16.2845 10.2195 15.8483 10.2072 15.41C10.2111 15.0512 10.1567 14.6941 10.0458 14.352C9.93093 14.0275 9.75536 13.7267 9.52803 13.4649C9.26898 13.1719 8.96772 12.9174 8.63372 12.7091C8.20737 12.4496 7.75713 12.2296 7.28889 12.052L5.37924 11.2437C2.60889 10.1003 1.2217 8.42457 1.21699 6.21657C1.20619 5.50558 1.35747 4.80116 1.65986 4.15441C1.96225 3.50766 2.40818 2.93481 2.96527 2.47743C4.16782 1.45875 5.71836 0.919238 7.30906 0.966C9.63561 0.966 11.4579 2.07854 12.7758 4.30429ZM26.7687 13.1429V21.1666H23.7092V1.35371H27.1722C28.466 1.31283 29.76 1.42759 31.0251 1.69543C31.8995 1.92606 32.6954 2.37963 33.3315 3.00971C33.9062 3.55333 34.3585 4.20815 34.6596 4.93234C34.9606 5.65652 35.1037 6.43412 35.0798 7.21543C35.1189 8.02436 34.9719 8.83158 34.6495 9.57764C34.3272 10.3237 33.8377 10.9896 33.2172 11.5263C31.8022 12.6532 30.0107 13.229 28.1875 13.1429H26.7687ZM26.7687 10.3697H27.9118C30.7225 10.3697 32.1279 9.31171 32.1279 7.19571C32.1279 5.15397 30.6775 4.13343 27.7773 4.13343H26.7687V10.3697ZM76.9913 12.7223L83.2649 21.1666H79.5263L73.7301 13.0574H73.1787V21.1666H70.1192V1.35371H73.7032C76.3929 1.35371 78.3294 1.8446 79.5129 2.82571C80.1564 3.35519 80.6683 4.02085 81.0096 4.77229C81.351 5.52372 81.5129 6.34122 81.483 7.16286C81.5159 8.47398 81.0782 9.755 80.2458 10.7837C79.4328 11.7892 78.2783 12.4769 76.9913 12.7223ZM73.1787 10.4486H74.1537C77.0518 10.4486 78.4975 9.37086 78.4975 7.20229C78.4975 5.17829 77.0922 4.15971 74.268 4.15971H73.1787V10.4486ZM98.3942 4.15971V21.1666H95.3348V4.15971H90.6749L88.5367 1.35371H105.219L103.047 4.15971H98.3942ZM138.046 21.1666V0L152.84 15.1143V1.35371H155.899V22.3823L141.106 7.268V21.1337L138.046 21.1666ZM125.439 21.1666H128.787L119.105 0.105143L109.072 21.1666H112.367L119.058 6.808L124.087 18.1174L125.439 21.1666ZM57.2627 21.1666H60.6113L50.9353 0.105143L40.8961 21.1666H44.191L50.8815 6.808L55.9111 18.1174L57.2627 21.1666Z" fill="#F8F7F3"/>
</g>
</g>
</g>
</g>
</g>
</g>
</g>
</g>
</g>
</g>
<defs>

<clipPath id="clip0_3005_2">
<rect width="156" height="23" fill="white"/>
</clipPath>
</defs>
</svg>
