<svg width="141" height="57" viewBox="0 0 141 57" fill="none" xmlns="http://www.w3.org/2000/svg">

<g id="home">

<g id="Investors">


<g id="Container">
<g id="Section Container">
<g id="grid">
<g id="logo1">
<g id="Vessel" clip-path="url(#clip0_3005_2)">
<g id="svg-80570210_8283" clip-path="url(#clip1_3005_2)">
<g id="Clip path group">
<mask id="mask0_3005_2" style="mask-type:luminance" maskUnits="userSpaceOnUse" x="0" y="0" width="141" height="57">
<g id="svg-80570210_8283_clip0_136_1584">
<path id="Vector" d="M141 0H0V57H141V0Z" fill="white"/>
</g>
</mask>
<g mask="url(#mask0_3005_2)">
<g id="Group">
<path id="Vector_2" d="M0.346235 28.322V21.1336C0.346229 21.113 0.350348 21.0927 0.358348 21.0736C0.366348 21.0547 0.378068 21.0374 0.392818 21.0231C0.407566 21.0087 0.425045 20.9974 0.444224 20.9899C0.463402 20.9824 0.483892 20.9787 0.504485 20.9793H3.23824C3.25883 20.9787 3.27932 20.9824 3.2985 20.9899C3.31768 20.9974 3.33516 21.0087 3.34991 21.0231C3.36465 21.0374 3.37638 21.0547 3.38437 21.0736C3.39238 21.0927 3.39649 21.113 3.39649 21.1336V28.3181C3.39829 29.3194 3.6025 30.3101 3.99683 31.2305C4.39116 32.1508 4.96747 32.9819 5.6911 33.6736C7.32802 35.2319 9.07742 36.6674 10.9252 37.9684C10.9531 37.9879 10.9862 37.9983 11.0202 37.9983C11.0541 37.9983 11.0872 37.9879 11.1151 37.9684C12.9627 36.6687 14.7121 35.2345 16.3492 33.6776C17.0728 32.9849 17.6489 32.1532 18.0432 31.2322C18.4375 30.3112 18.6418 29.32 18.6438 28.3181V21.1336C18.6438 21.113 18.6479 21.0927 18.6559 21.0736C18.6639 21.0547 18.6756 21.0374 18.6903 21.0231C18.7051 21.0087 18.7226 20.9974 18.7418 20.9899C18.7609 20.9824 18.7814 20.9787 18.802 20.9793H21.5358C21.5563 20.9787 21.5769 20.9824 21.596 20.9899C21.6152 20.9974 21.6327 21.0087 21.6474 21.0231C21.6622 21.0374 21.6739 21.0547 21.6819 21.0736C21.6899 21.0927 21.694 21.113 21.694 21.1336V28.322C21.6979 29.6865 21.429 31.038 20.9032 32.2969C20.3773 33.5559 19.6051 34.6969 18.6319 35.6528C16.3108 37.873 13.7951 39.8799 11.1151 41.6497C11.0879 41.667 11.0563 41.6761 11.0241 41.6761C10.9919 41.6761 10.9603 41.667 10.9331 41.6497C8.25221 39.8812 5.73636 37.8741 3.41627 35.6528C2.44078 34.6982 1.6665 33.5576 1.13919 32.2985C0.611879 31.0394 0.342246 29.6872 0.346235 28.322Z" fill="#F8F7F3"/>
<path id="Vector_3" d="M58.3605 20.8168H71.8673C71.9043 20.8189 71.9399 20.8352 71.9655 20.8624C71.9912 20.8897 72.0054 20.9258 72.0054 20.9633V23.548C72.0068 23.5862 71.9926 23.6234 71.9669 23.6515C71.9413 23.6796 71.905 23.6965 71.8673 23.6985H58.5346C58.0728 23.6918 57.6162 23.7962 57.2031 24.0028C56.7901 24.2095 56.4326 24.5123 56.1609 24.886C55.8244 25.3565 55.6394 25.9185 55.6307 26.497C55.6183 26.8982 55.6861 27.2977 55.8301 27.6723C55.9741 28.0468 56.1915 28.3888 56.4695 28.678C56.7124 28.9332 57.0055 29.1352 57.3302 29.2715C57.655 29.4077 58.0045 29.4752 58.3566 29.4698H66.546C67.2709 29.4617 67.9892 29.6071 68.6539 29.8964C69.3187 30.1856 69.9149 30.6121 70.4033 31.1481C71.4279 32.2582 71.9976 33.7139 71.9976 35.2251C71.9976 36.7364 71.4279 38.1921 70.4033 39.3023C69.9151 39.8401 69.3187 40.2685 68.6532 40.5591C67.9876 40.8498 67.2682 40.9961 66.542 40.9885H53.0473C53.0282 40.988 53.0092 40.9837 52.9916 40.9759C52.974 40.968 52.9582 40.9568 52.945 40.9428C52.9317 40.9288 52.9214 40.9124 52.9145 40.8944C52.9077 40.8765 52.9044 40.8573 52.9049 40.8381V38.2533C52.9044 38.2342 52.9077 38.2153 52.9146 38.1975C52.9216 38.1798 52.932 38.1636 52.9452 38.15C52.9585 38.1363 52.9744 38.1254 52.9919 38.118C53.0094 38.1106 53.0283 38.1068 53.0473 38.1068H66.3878C66.7599 38.1174 67.1304 38.0538 67.4778 37.9197C67.8253 37.7856 68.1425 37.5839 68.4113 37.326C68.6799 37.0682 68.8948 36.7595 69.0432 36.4179C69.1916 36.0762 69.2707 35.7085 69.2758 35.336C69.2885 34.932 69.2197 34.5297 69.0736 34.1529C68.9275 33.7761 68.7069 33.4327 68.4252 33.1431C68.1826 32.8876 67.8896 32.6853 67.5647 32.5491C67.2399 32.4128 66.8902 32.3454 66.5381 32.3514H58.3487C57.623 32.36 56.9038 32.214 56.2388 31.9233C55.5738 31.6326 54.9782 31.2037 54.4914 30.6651C53.4639 29.5563 52.8931 28.1001 52.8931 26.5881C52.8931 25.0761 53.4639 23.6198 54.4914 22.511C54.9787 21.9695 55.576 21.5382 56.2432 21.2461C56.9104 20.9539 57.6323 20.8076 58.3605 20.8168Z" fill="#F8F7F3"/>
<path id="Vector_4" d="M85.9122 20.9792H99.4147C99.4525 20.9802 99.4888 20.9961 99.5151 21.0234C99.5422 21.0508 99.5572 21.0875 99.5572 21.1256V23.6906C99.5572 23.7097 99.5543 23.7286 99.5472 23.7464C99.5401 23.7641 99.5301 23.7803 99.5166 23.794C99.5037 23.8076 99.4874 23.8185 99.4703 23.8259C99.4525 23.8333 99.4333 23.8371 99.4147 23.8371H86.0781C85.6188 23.8279 85.1638 23.9283 84.7514 24.13C84.3384 24.3317 83.9795 24.6288 83.7046 24.9969C83.3721 25.4589 83.1883 26.0112 83.1784 26.5802C83.1656 26.9793 83.2325 27.3768 83.3763 27.7493C83.5195 28.1219 83.736 28.4619 84.013 28.7494C84.2572 29.0036 84.5513 29.205 84.8768 29.3413C85.2015 29.4774 85.5512 29.5454 85.9044 29.5411H94.0895C94.8144 29.5319 95.5337 29.6764 96.1988 29.965C96.8646 30.2536 97.4614 30.6797 97.9506 31.2154C98.9782 32.3109 99.5493 33.7567 99.5493 35.2589C99.5493 36.761 98.9782 38.2068 97.9506 39.3023C97.4614 39.838 96.8646 40.2641 96.1988 40.5527C95.5337 40.8413 94.8144 40.9857 94.0895 40.9767H80.5948C80.5563 40.9746 80.5207 40.9577 80.4951 40.9297C80.4688 40.9015 80.4552 40.8645 80.4566 40.8263V38.2771C80.4552 38.2389 80.4688 38.2018 80.4951 38.1737C80.5207 38.1456 80.5563 38.1288 80.5948 38.1267H93.935C94.3943 38.1363 94.8486 38.0366 95.2616 37.8356C95.674 37.6346 96.0336 37.3382 96.3092 36.9709C96.6446 36.5015 96.8297 35.9409 96.839 35.3638C96.8504 34.9664 96.7813 34.5708 96.6375 34.2003C96.4936 33.8298 96.2771 33.4919 96.0001 33.2064C95.7566 32.9517 95.4625 32.7498 95.137 32.6136C94.8116 32.4774 94.4619 32.4097 94.1094 32.4148H85.9122C85.1873 32.4244 84.468 32.2806 83.8029 31.9926C83.1371 31.7048 82.5403 31.2793 82.0504 30.7444C81.0285 29.6456 80.4602 28.2001 80.4602 26.699C80.4602 25.1978 81.0285 23.7524 82.0504 22.6535C82.5396 22.1178 83.1371 21.6917 83.8022 21.4031C84.468 21.1145 85.1866 20.9701 85.9122 20.9792Z" fill="#F8F7F3"/>
<path id="Vector_5" d="M130.289 30.9661V21.1257C130.29 21.0865 130.306 21.0492 130.335 21.0219C130.362 20.9945 130.4 20.9792 130.439 20.9792H132.999C133.038 20.9792 133.075 20.9946 133.103 21.0221C133.13 21.0496 133.145 21.0868 133.145 21.1257V30.8394C133.129 32.7165 133.838 34.5275 135.124 35.8942C135.765 36.5862 136.541 37.139 137.405 37.5183C138.268 37.8976 139.201 38.0952 140.144 38.099C140.183 38.1 140.219 38.1157 140.247 38.143C140.274 38.1702 140.289 38.2069 140.29 38.2455V40.8026C140.29 40.8227 140.287 40.8425 140.279 40.8611C140.271 40.8796 140.259 40.8963 140.245 40.9104C140.23 40.9243 140.213 40.9354 140.195 40.9426C140.176 40.95 140.156 40.9535 140.136 40.953C137.513 40.9166 135.009 39.8485 133.166 37.9796C131.323 36.1108 130.29 33.5913 130.289 30.9661Z" fill="#F8F7F3"/>
<path id="Vector_6" d="M14.6368 23.4609L11.0208 26.9759L7.40479 23.4609H14.6368Z" fill="#80F045"/>
<path id="Vector_7" d="M41.0005 32.3238C41.0397 32.3228 41.077 32.3064 41.1043 32.2784C41.1316 32.2502 41.1469 32.2125 41.1469 32.1734V29.5965C41.1469 29.5573 41.1316 29.5196 41.1043 29.4915C41.077 29.4634 41.0397 29.4471 41.0005 29.446H29.1318V32.3238H41.0005Z" fill="#F8F7F3"/>
<path id="Vector_8" d="M29.1406 40.9529H43.8578C43.8966 40.9529 43.9338 40.9374 43.9613 40.91C43.9887 40.8825 44.0042 40.8453 44.0042 40.8064V38.2256C44.0042 38.1864 43.9889 38.1487 43.9615 38.1207C43.9342 38.0925 43.897 38.0763 43.8578 38.0752H29.1406" fill="#F8F7F3"/>
<path id="Vector_9" d="M29.1406 23.6947H43.8578C43.897 23.6936 43.9342 23.6773 43.9615 23.6492C43.9889 23.6211 44.0042 23.5834 44.0042 23.5442V20.9792C44.0042 20.9404 43.9887 20.9031 43.9613 20.8757C43.9338 20.8482 43.8966 20.8328 43.8578 20.8328H29.1406" fill="#F8F7F3"/>
<path id="Vector_10" d="M118.559 32.4108C118.578 32.4113 118.598 32.4079 118.616 32.4008C118.634 32.3937 118.651 32.383 118.665 32.3694C118.679 32.3557 118.69 32.3394 118.698 32.3213C118.706 32.3033 118.709 32.2839 118.709 32.2643V29.6874C118.708 29.6482 118.692 29.611 118.664 29.5836C118.636 29.5563 118.598 29.541 118.559 29.541H106.69V32.3989L118.559 32.4108Z" fill="#F8F7F3"/>
<path id="Vector_11" d="M106.702 40.9885H121.415C121.455 40.9885 121.494 40.9727 121.521 40.9445C121.55 40.9163 121.566 40.878 121.566 40.8381V38.2771C121.566 38.2372 121.55 38.199 121.521 38.1707C121.494 38.1425 121.455 38.1267 121.415 38.1267H106.702" fill="#F8F7F3"/>
<path id="Vector_12" d="M106.702 23.8372H121.415C121.435 23.8377 121.454 23.8342 121.472 23.8271C121.491 23.82 121.507 23.8093 121.521 23.7957C121.536 23.782 121.546 23.7657 121.554 23.7477C121.562 23.7296 121.566 23.7103 121.566 23.6907V21.1257C121.565 21.0865 121.548 21.0492 121.52 21.0219C121.492 20.9945 121.454 20.9792 121.415 20.9792H106.702" fill="#F8F7F3"/>
</g>
</g>
</g>
</g>
</g>
</g>
</g>
</g>
</g>
</g>
</g>
<defs>

<clipPath id="clip0_3005_2">
<rect width="141" height="57" fill="white"/>
</clipPath>
<clipPath id="clip1_3005_2">
<rect width="141" height="57" fill="white"/>
</clipPath>
</defs>
</svg>
