<svg viewBox="0 0 35 35" fill="none" xmlns="http://www.w3.org/2000/svg">
<path d="M6.47852 30.6814V27.6524C6.47852 27.0372 6.69398 26.5142 7.12492 26.0833C7.55586 25.6523 8.07892 25.4368 8.69409 25.4368H9.84398V21.2303H8.69409C8.07892 21.2303 7.55586 21.0148 7.12492 20.5839C6.69398 20.1529 6.47852 19.6299 6.47852 19.0147V15.9858C6.47852 15.3706 6.69398 14.8475 7.12492 14.4166C7.55586 13.9856 8.07892 13.7702 8.69409 13.7702H9.84398V9.56362H8.69409C8.07892 9.56362 7.55586 9.34815 7.12492 8.91721C6.69398 8.48628 6.47852 7.96322 6.47852 7.34805V4.31909C6.47852 3.70392 6.69398 3.18086 7.12492 2.74992C7.55586 2.31898 8.07892 2.10352 8.69409 2.10352H13.1814C13.7966 2.10352 14.3196 2.31898 14.7505 2.74992C15.1815 3.18086 15.397 3.70392 15.397 4.31909V7.34805C15.397 7.96322 15.1815 8.48628 14.7505 8.91721C14.3196 9.34815 13.7966 9.56362 13.1814 9.56362H12.0315V13.7702H13.1814C13.7966 13.7702 14.3196 13.9856 14.7505 14.4166C15.1815 14.8475 15.397 15.3706 15.397 15.9858V16.4065H21.0618V15.9858C21.0618 15.3706 21.2773 14.8475 21.7083 14.4166C22.1392 13.9856 22.6623 13.7702 23.2774 13.7702H27.7647C28.3799 13.7702 28.9029 13.9856 29.3339 14.4166C29.7648 14.8475 29.9803 15.3706 29.9803 15.9858V19.0147C29.9803 19.6299 29.7648 20.1529 29.3339 20.5839C28.9029 21.0148 28.3799 21.2303 27.7647 21.2303H23.2774C22.6623 21.2303 22.1392 21.0148 21.7083 20.5839C21.2773 20.1529 21.0618 19.6299 21.0618 19.0147V18.594H15.397V19.0147C15.397 19.6299 15.1815 20.1529 14.7505 20.5839C14.3196 21.0148 13.7966 21.2303 13.1814 21.2303H12.0315V25.4368H13.1814C13.7966 25.4368 14.3196 25.6523 14.7505 26.0833C15.1815 26.5142 15.397 27.0372 15.397 27.6524V30.6814C15.397 31.2965 15.1815 31.8196 14.7505 32.2505C14.3196 32.6815 13.7966 32.8969 13.1814 32.8969H8.69409C8.07892 32.8969 7.55586 32.6815 7.12492 32.2505C6.69398 31.8196 6.47852 31.2965 6.47852 30.6814ZM8.66602 30.7094H13.2095V27.6243H8.66602V30.7094ZM8.66602 19.0428H13.2095V15.9577H8.66602V19.0428ZM23.2493 19.0428H27.7928V15.9577H23.2493V19.0428ZM8.66602 7.37612H13.2095V4.29102H8.66602V7.37612Z" fill="currentColor"/>
</svg>
