<svg viewBox="0 0 35 35" fill="none" xmlns="http://www.w3.org/2000/svg">
<path d="M7.2915 26.2498V27.7082V7.2915V26.2498ZM7.74031 29.8957C7.01308 29.8957 6.39183 29.6382 5.87656 29.1231C5.36152 28.6078 5.104 27.9866 5.104 27.2594V7.74031C5.104 7.01308 5.36152 6.39183 5.87656 5.87656C6.39183 5.36152 7.01308 5.104 7.74031 5.104H27.2594C27.9866 5.104 28.6078 5.36152 29.1231 5.87656C29.6382 6.39183 29.8957 7.01308 29.8957 7.74031V11.7088H27.7082V7.74031C27.7082 7.6093 27.6661 7.50175 27.582 7.41765C27.4979 7.33355 27.3904 7.2915 27.2594 7.2915H7.74031C7.6093 7.2915 7.50175 7.33355 7.41765 7.41765C7.33355 7.50175 7.2915 7.6093 7.2915 7.74031V27.2594C7.2915 27.3904 7.33355 27.4979 7.41765 27.582C7.50175 27.6661 7.6093 27.7082 7.74031 27.7082H27.2594C27.3904 27.7082 27.4979 27.6661 27.582 27.582C27.6661 27.4979 27.7082 27.3904 27.7082 27.2594V23.2909H29.8957V27.2594C29.8957 27.9866 29.6382 28.6078 29.1231 29.1231C28.6078 29.6382 27.9866 29.8957 27.2594 29.8957H7.74031ZM19.407 24.0623C18.6797 24.0623 18.0585 23.8048 17.5432 23.2898C17.0282 22.7745 16.7707 22.1533 16.7707 21.426V13.5736C16.7707 12.8464 17.0282 12.2252 17.5432 11.7099C18.0585 11.1949 18.6797 10.9373 19.407 10.9373H28.7177C29.4449 10.9373 30.0662 11.1949 30.5815 11.7099C31.0965 12.2252 31.354 12.8464 31.354 13.5736V21.426C31.354 22.1533 31.0965 22.7745 30.5815 23.2898C30.0662 23.8048 29.4449 24.0623 28.7177 24.0623H19.407ZM28.7177 21.8748C28.8487 21.8748 28.9563 21.8328 29.0404 21.7487C29.1245 21.6646 29.1665 21.557 29.1665 21.426V13.5736C29.1665 13.4426 29.1245 13.3351 29.0404 13.251C28.9563 13.1669 28.8487 13.1248 28.7177 13.1248H19.407C19.276 13.1248 19.1684 13.1669 19.0843 13.251C19.0002 13.3351 18.9582 13.4426 18.9582 13.5736V21.426C18.9582 21.557 19.0002 21.6646 19.0843 21.7487C19.1684 21.8328 19.276 21.8748 19.407 21.8748H28.7177ZM24.8826 19.0493C25.308 18.624 25.5207 18.1075 25.5207 17.4998C25.5207 16.8922 25.308 16.3757 24.8826 15.9504C24.4573 15.525 23.9408 15.3123 23.3332 15.3123C22.7255 15.3123 22.209 15.525 21.7837 15.9504C21.3583 16.3757 21.1457 16.8922 21.1457 17.4998C21.1457 18.1075 21.3583 18.624 21.7837 19.0493C22.209 19.4747 22.7255 19.6873 23.3332 19.6873C23.9408 19.6873 24.4573 19.4747 24.8826 19.0493Z" fill="currentColor"/>
</svg>
