<svg viewBox="0 0 35 35" fill="none" xmlns="http://www.w3.org/2000/svg">
<path d="M31.3543 9.1988V25.8012C31.3543 26.5379 31.0991 27.1615 30.5887 27.6719C30.0783 28.1823 29.4547 28.4375 28.718 28.4375H6.2823C5.5456 28.4375 4.92204 28.1823 4.41162 27.6719C3.9012 27.1615 3.646 26.5379 3.646 25.8012V9.1988C3.646 8.4621 3.9012 7.83854 4.41162 7.32812C4.92204 6.81771 5.5456 6.5625 6.2823 6.5625H28.718C29.4547 6.5625 30.0783 6.81771 30.5887 7.32812C31.0991 7.83854 31.3543 8.4621 31.3543 9.1988ZM5.8335 12.2558H29.1668V9.1988C29.1668 9.08651 29.12 8.9837 29.0265 8.89036C28.9331 8.79679 28.8303 8.75 28.718 8.75H6.2823C6.17001 8.75 6.06719 8.79679 5.97386 8.89036C5.88028 8.9837 5.8335 9.08651 5.8335 9.1988V12.2558ZM5.8335 16.9108V25.8012C5.8335 25.9135 5.88028 26.0163 5.97386 26.1096C6.06719 26.2032 6.17001 26.25 6.2823 26.25H28.718C28.8303 26.25 28.9331 26.2032 29.0265 26.1096C29.12 26.0163 29.1668 25.9135 29.1668 25.8012V16.9108H5.8335Z" fill="currentColor"/>
</svg>
